<svg aria-hidden="true" focusable="false" data-prefix="fab" data-icon="trakt" class="svg-inline--fa fa-trakt fa-w-16" role="img" xmlns="http://www.w3.org/2000/svg" viewBox="0 0 1024 1024"><path fill="currentColor" d="M512 1024C229.76 1024 0 794.24 0 512S229.76 0 512 0s512 229.76 512 512-229.76 512-512 512z m0-972.330667C258.133333 51.669333 51.669333 258.133333 51.669333 512S258.133333 972.373333 512 972.373333 972.373333 765.866667 972.373333 512 765.866667 51.669333 512 51.669333z m-303.36 738.986667A409.642667 409.642667 0 0 0 512 923.477333a410.368 410.368 0 0 0 171.818667-37.376l-285.738667-285.013333-189.44 189.568z m609.621333-2.858667a411.904 411.904 0 0 0 105.984-275.882666c0-165.76-97.578667-307.84-237.568-373.76l-259.797333 259.242666 390.997333 390.4h0.384z m-421.418666-359.637333L180.352 643.84l-28.970667-29.013333 227.712-227.669334 265.813334-265.6A416.256 416.256 0 0 0 512 99.84C284.288 99.712 99.712 284.288 99.712 512c0 92.672 30.421333 178.261333 82.730667 247.509333l215.722666-215.68 15.317334 14.037334 309.12 309.12a141.226667 141.226667 0 0 0 17.92-11.349334L398.08 514.133333l-207.104 207.146667-28.970667-28.970667 236.16-236.16 15.317334 14.122667 360.96 359.978667c5.76-4.266667 10.88-9.173333 16-13.482667L400.64 427.818667l-3.541333 0.64-0.256-0.298667z m130.005333 43.861333l-28.928-28.842666 204.288-204.373334 28.970667 29.397334-204.330667 204.16v-0.341334z m193.792-280.661333l-235.52 235.52-29.013333-28.970667 235.562666-235.52 28.970667 29.184v-0.213333z"></path></svg>
